<?xml version="1.0" encoding="UTF-8" standalone="no"?><!DOCTYPE svg PUBLIC "-//W3C//DTD SVG 1.1//EN" "http://www.w3.org/Graphics/SVG/1.1/DTD/svg11.dtd"><svg width="100%" height="100%" viewBox="0 0 877 877" version="1.1" xmlns="http://www.w3.org/2000/svg" xmlns:xlink="http://www.w3.org/1999/xlink" xml:space="preserve" xmlns:serif="http://www.serif.com/" style="fill-rule:evenodd;clip-rule:evenodd;stroke-linejoin:round;stroke-miterlimit:1.41421;"><path d="M219.167,803.611c-30.264,0 -54.792,-24.529 -54.792,-54.792l0,-620.972c0,-30.263 24.528,-54.791 54.792,-54.791l292.222,0l200.902,200.902l0,474.861c0,30.263 -24.528,54.792 -54.791,54.792l-438.333,0Z" style="fill:#673ab7;fill-rule:nonzero;"/><path d="M219.167,803.611c-30.264,0 -54.792,-24.529 -54.792,-54.792l0,-620.972c0,-30.263 24.528,-54.791 54.792,-54.791l292.222,0l200.902,200.902l0,474.861c0,30.263 -24.528,54.792 -54.791,54.792l-438.333,0Z" style="fill:#188038;fill-rule:nonzero;"/><path d="M712.291,273.958l-184.775,-15.981l184.775,182.621l0,-166.64Z" style="fill:#5e35b1;fill-rule:nonzero;"/><path d="M712.291,273.958l-184.775,-15.981l184.775,182.621l0,-166.64Z" style="fill:#146a2d;fill-rule:nonzero;"/><path d="M712.291,273.958l-146.111,0c-30.263,0 -54.791,-24.528 -54.791,-54.791l0,-146.111l200.902,200.902Z" style="fill:#b39ddb;fill-rule:nonzero;"/><path d="M712.291,273.958l-146.111,0c-30.263,0 -54.791,-24.528 -54.791,-54.791l0,-146.111l200.902,200.902Z" style="fill:#60b378;fill-rule:nonzero;"/><path d="M550.975,612.706l-0.375,0c-20.173,0 -32.733,14.461 -32.733,32.537c0.376,18.474 12.56,32.537 32.349,32.537c19.79,0 32.725,-14.063 32.725,-32.537c0,-18.076 -12.552,-32.537 -31.966,-32.537Z" style="fill:#fff;fill-rule:nonzero;"/><path d="M481.715,677.78l0,-65.074l-187.99,0l0,65.074l187.99,0Z" style="fill:#fff;"/><path d="M413.027,396.751c37.938,0 68.688,29.886 68.688,66.758c0,21.454 -10.455,40.491 -26.636,52.704l26.636,0l0,63.245l-187.99,0l0,-63.245l108.456,0c15.972,0 28.922,-12.586 28.922,-28.109c0,-15.523 -12.95,-28.109 -28.922,-28.109l-108.456,0l0,-63.244c0,0 108.781,0 119.302,0Z" style="fill:#fff;fill-rule:nonzero;"/></svg>